<svg id="visual" viewBox="0 0 900 450" width="900" height="450" xmlns="http://www.w3.org/2000/svg" xmlns:xlink="http://www.w3.org/1999/xlink" version="1.1"><path d="M0 187L113 193L225 177L338 241L450 270L563 263L675 157L788 206L900 224L900 451L788 451L675 451L563 451L450 451L338 451L225 451L113 451L0 451Z" fill="#001100"></path><path d="M0 264L113 193L225 213L338 254L450 310L563 277L675 289L788 186L900 298L900 451L788 451L675 451L563 451L450 451L338 451L225 451L113 451L0 451Z" fill="#000f00"></path><path d="M0 280L113 258L225 334L338 278L450 341L563 304L675 228L788 286L900 235L900 451L788 451L675 451L563 451L450 451L338 451L225 451L113 451L0 451Z" fill="#000c00"></path><path d="M0 356L113 270L225 324L338 334L450 312L563 317L675 275L788 341L900 339L900 451L788 451L675 451L563 451L450 451L338 451L225 451L113 451L0 451Z" fill="#000900"></path><path d="M0 356L113 353L225 328L338 337L450 392L563 358L675 357L788 380L900 369L900 451L788 451L675 451L563 451L450 451L338 451L225 451L113 451L0 451Z" fill="#000600"></path><path d="M0 377L113 373L225 431L338 428L450 398L563 387L675 376L788 406L900 367L900 451L788 451L675 451L563 451L450 451L338 451L225 451L113 451L0 451Z" fill="#000300"></path></svg>