<svg id="visual" viewBox="0 0 900 600" width="900" height="600" xmlns="http://www.w3.org/2000/svg" xmlns:xlink="http://www.w3.org/1999/xlink" version="1.1"><path d="M0 253L113 370L225 239L338 357L450 374L563 267L675 382L788 337L900 249L900 601L788 601L675 601L563 601L450 601L338 601L225 601L113 601L0 601Z" fill="#001b21"></path><path d="M0 356L113 263L225 279L338 409L450 352L563 289L675 310L788 348L900 309L900 601L788 601L675 601L563 601L450 601L338 601L225 601L113 601L0 601Z" fill="#00181c"></path><path d="M0 413L113 362L225 326L338 358L450 405L563 454L675 319L788 362L900 358L900 601L788 601L675 601L563 601L450 601L338 601L225 601L113 601L0 601Z" fill="#001417"></path><path d="M0 471L113 461L225 422L338 447L450 433L563 410L675 484L788 373L900 472L900 601L788 601L675 601L563 601L450 601L338 601L225 601L113 601L0 601Z" fill="#001011"></path><path d="M0 531L113 493L225 430L338 534L450 471L563 505L675 487L788 470L900 503L900 601L788 601L675 601L563 601L450 601L338 601L225 601L113 601L0 601Z" fill="#000a0a"></path><path d="M0 511L113 525L225 530L338 501L450 528L563 538L675 489L788 526L900 543L900 601L788 601L675 601L563 601L450 601L338 601L225 601L113 601L0 601Z" fill="#000303"></path></svg>