<svg id="visual" viewBox="0 0 900 450" width="900" height="450" xmlns="http://www.w3.org/2000/svg" xmlns:xlink="http://www.w3.org/1999/xlink" version="1.1"><path d="M0 119L113 205L225 181L338 205L450 68L563 150L675 218L788 240L900 182L900 451L788 451L675 451L563 451L450 451L338 451L225 451L113 451L0 451Z" fill="#001100"></path><path d="M0 120L113 199L225 132L338 159L450 215L563 155L675 278L788 256L900 147L900 451L788 451L675 451L563 451L450 451L338 451L225 451L113 451L0 451Z" fill="#000f00"></path><path d="M0 237L113 276L225 172L338 304L450 315L563 189L675 236L788 316L900 310L900 451L788 451L675 451L563 451L450 451L338 451L225 451L113 451L0 451Z" fill="#000c00"></path><path d="M0 234L113 325L225 331L338 264L450 334L563 267L675 287L788 233L900 295L900 451L788 451L675 451L563 451L450 451L338 451L225 451L113 451L0 451Z" fill="#000900"></path><path d="M0 292L113 310L225 331L338 313L450 350L563 319L675 298L788 297L900 375L900 451L788 451L675 451L563 451L450 451L338 451L225 451L113 451L0 451Z" fill="#000600"></path><path d="M0 361L113 361L225 376L338 342L450 342L563 358L675 356L788 367L900 414L900 451L788 451L675 451L563 451L450 451L338 451L225 451L113 451L0 451Z" fill="#000300"></path></svg>