<svg id="visual" viewBox="0 0 2048 1080" width="2048" height="1080" xmlns="http://www.w3.org/2000/svg" xmlns:xlink="http://www.w3.org/1999/xlink" version="1.1"><path d="M0 334L256 209L512 431L768 424L1024 394L1280 265L1536 462L1792 328L2048 559L2048 1081L1792 1081L1536 1081L1280 1081L1024 1081L768 1081L512 1081L256 1081L0 1081Z" fill="#00222a"></path><path d="M0 634L256 563L512 437L768 531L1024 310L1280 392L1536 341L1792 628L2048 342L2048 1081L1792 1081L1536 1081L1280 1081L1024 1081L768 1081L512 1081L256 1081L0 1081Z" fill="#041d23"></path><path d="M0 612L256 714L512 520L768 640L1024 769L1280 730L1536 437L1792 562L2048 680L2048 1081L1792 1081L1536 1081L1280 1081L1024 1081L768 1081L512 1081L256 1081L0 1081Z" fill="#04181d"></path><path d="M0 650L256 573L512 716L768 725L1024 598L1280 576L1536 603L1792 814L2048 805L2048 1081L1792 1081L1536 1081L1280 1081L1024 1081L768 1081L512 1081L256 1081L0 1081Z" fill="#031317"></path><path d="M0 866L256 792L512 732L768 931L1024 867L1280 924L1536 914L1792 743L2048 720L2048 1081L1792 1081L1536 1081L1280 1081L1024 1081L768 1081L512 1081L256 1081L0 1081Z" fill="#010d0f"></path><path d="M0 833L256 863L512 997L768 974L1024 941L1280 845L1536 931L1792 845L2048 887L2048 1081L1792 1081L1536 1081L1280 1081L1024 1081L768 1081L512 1081L256 1081L0 1081Z" fill="#000405"></path></svg>