<svg id="visual" viewBox="0 0 900 450" width="900" height="450" xmlns="http://www.w3.org/2000/svg" xmlns:xlink="http://www.w3.org/1999/xlink" version="1.1"><path d="M0 345L41 286L82 333L123 211L164 319L205 340L245 357L286 290L327 339L368 338L409 335L450 328L491 351L532 255L573 216L614 297L655 300L695 250L736 239L777 185L818 210L859 353L900 249L900 451L859 451L818 451L777 451L736 451L695 451L655 451L614 451L573 451L532 451L491 451L450 451L409 451L368 451L327 451L286 451L245 451L205 451L164 451L123 451L82 451L41 451L0 451Z" fill="#193331" stroke-linecap="square" stroke-linejoin="bevel"></path></svg>